<svg xmlns="http://www.w3.org/2000/svg" xmlns:xlink="http://www.w3.org/1999/xlink" enable-background="new 0 0 4000 3000" viewBox="0 0 4000 3000"><g><defs><rect id="a" width="4000" height="3000"/></defs><clipPath id="b"><use overflow="visible" xlink:href="#a"/></clipPath><path fill="#ffd6e8" d="M1043.8649,1922.9641c98.39,52.9509,225.0594,85.6897,365.4901,91.6914   c0.0602,0.4725,0.0938,0.9448,0.1553,1.4174c42.928,329.453,515.2449,539.5187,1054.949,469.1949   c514.0256-66.9778,903.7751-364.1433,902.613-676.8993c217.6069-102.3154,353.6091-267.79,331.7969-435.1888   c-13.8562-106.3414-89.0964-195.6023-202.761-257.6443c59.1069-91.2273,86.4368-189.6521,73.5476-288.5711   c-42.9277-329.4529-515.2441-539.519-1054.9485-469.1953c-342.2141,44.5907-629.2931,191.2238-782.6675,376.5421   c-131.9299-20.3763-276.854-22.5421-427.0139-2.9761c-539.704,70.3237-942.4205,394.4066-899.4927,723.8596   C436.8302,1695.385,696.3856,1872.0791,1043.8649,1922.9641z" clip-path="url(#b)" opacity=".2"/><g clip-path="url(#b)"><g><g><g><g><g><defs><path id="c" d="M2954.7673,2514.7686H1143.9559c-36.1506,0-65.4565-29.3059-65.4565-65.4565V1278.6816          c0-36.1506,29.3059-65.4565,65.4565-65.4565h1810.8114c36.1506,0,65.4565,29.3059,65.4565,65.4565V2449.312          C3020.2239,2485.4626,2990.918,2514.7686,2954.7673,2514.7686z"/></defs><use fill="#4f4f5b" overflow="visible" xlink:href="#c"/><clipPath id="d"><use overflow="visible" xlink:href="#c"/></clipPath><g clip-path="url(#d)"><defs><rect id="e" width="2160.873" height="251.384" x="985.266" y="1161.109"/></defs><use fill="#fff" overflow="visible" xlink:href="#e"/><clipPath id="f"><use overflow="visible" xlink:href="#e"/></clipPath><path fill="#383351" d="M993.8165,1496.3357c2049.5986,18.394,2265.1045-118.4655,2159.644-368.7035          c-105.4604-250.2381,146.7273,250.4854,146.7273,250.4854l-45.8523,237.7788l-600.6653,18.394l-1331.3105-27.5909" clip-path="url(#f)"/><use fill="none" stroke="#3d3d3c" stroke-linecap="round" stroke-linejoin="round" stroke-miterlimit="10" stroke-width="8" overflow="visible" xlink:href="#e"/></g><use fill="none" stroke="#3d3d3c" stroke-linecap="round" stroke-linejoin="round" stroke-miterlimit="10" stroke-width="8" overflow="visible" xlink:href="#c"/></g><g><ellipse cx="1194.439" cy="1306.344" fill="#ffd6e8" stroke="#3d3d3c" stroke-linecap="round" stroke-linejoin="round" stroke-miterlimit="10" stroke-width="8" rx="35.535" ry="35.638"/><ellipse cx="1301.96" cy="1306.344" fill="#fff" stroke="#3d3d3c" stroke-linecap="round" stroke-linejoin="round" stroke-miterlimit="10" stroke-width="8" rx="35.535" ry="35.638"/><ellipse cx="1409.48" cy="1306.344" fill="#ffd6e8" stroke="#3d3d3c" stroke-linecap="round" stroke-linejoin="round" stroke-miterlimit="10" stroke-width="8" rx="35.535" ry="35.638"/></g></g></g><g><path fill="#fff" stroke="#3d3d3c" stroke-linecap="round" stroke-linejoin="round" stroke-miterlimit="10" stroke-width="8" d="M2453.6821,1565.7476c0-12.6786-10.25-22.9583-22.8921-22.9583h-161.1323       c-12.6421,0-22.8918,10.2797-22.8918,22.9583c0,12.6785,10.2498,22.9581,22.8918,22.9581H2430.79       C2443.4321,1588.7057,2453.6821,1578.426,2453.6821,1565.7476z"/><path fill="#fff" stroke="#3d3d3c" stroke-linecap="round" stroke-linejoin="round" stroke-miterlimit="10" stroke-width="8" d="M2169.7512,1542.7893h-212.7008c-12.642,0-22.892,10.2797-22.892,22.9583       c0,12.6785,10.25,22.9581,22.892,22.9581h212.7008c12.6421,0,22.8921-10.2797,22.8921-22.9581       C2192.6433,1553.069,2182.3933,1542.7893,2169.7512,1542.7893z"/><path fill="#fff" stroke="#3d3d3c" stroke-linecap="round" stroke-linejoin="round" stroke-miterlimit="10" stroke-width="8" d="M1218.1025,1588.7057h144.0194h185.6451h264.2637c12.642,0,22.892-10.2797,22.892-22.9581       c0-12.6786-10.25-22.9583-22.892-22.9583h-264.2637h-185.6451h-144.0194c-12.642,0-22.892,10.2797-22.892,22.9583       C1195.2106,1578.426,1205.4606,1588.7057,1218.1025,1588.7057z"/><path fill="#fff" stroke="#3d3d3c" stroke-linecap="round" stroke-linejoin="round" stroke-miterlimit="10" stroke-width="8" d="M1812.0308,1887.1616h-593.9282c-12.642,0-22.892,10.2795-22.892,22.9581s10.25,22.9581,22.892,22.9581       h593.9282c12.642,0,22.892-10.2795,22.892-22.9581S1824.6727,1887.1616,1812.0308,1887.1616z"/><path fill="#fff" stroke="#3d3d3c" stroke-linecap="round" stroke-linejoin="round" stroke-miterlimit="10" stroke-width="8" d="M2640.2717,1714.9755h-314.7756c-12.6421,0-22.8921,10.2797-22.8921,22.9581       c0,12.6786,10.25,22.9581,22.8921,22.9581h314.7756c12.6421,0,22.8921-10.2795,22.8921-22.9581       C2663.1638,1725.2551,2652.9138,1714.9755,2640.2717,1714.9755z"/><path fill="#fff" stroke="#3d3d3c" stroke-linecap="round" stroke-linejoin="round" stroke-miterlimit="10" stroke-width="8" d="M2110.8726,1714.9755h-878.9598c-12.6421,0-22.892,10.2797-22.892,22.9581       c0,12.6786,10.2499,22.9581,22.892,22.9581h878.9598c12.6421,0,22.8921-10.2795,22.8921-22.9581       C2133.7646,1725.2551,2123.5146,1714.9755,2110.8726,1714.9755z"/></g></g><path fill="none" stroke="#3d3d3c" stroke-linecap="round" stroke-linejoin="round" stroke-miterlimit="10" stroke-width="8" d="M2159.855,2272.186c-3.2227,3.2319-6.4453,6.4641-9.668,9.696"/></g><g><g><g><defs><path id="g" d="M2826.8669,889.9694h-439.2771c-59.9548,0-108.5579-48.7435-108.5579-108.8717v-440.547        c0-60.1282,48.603-108.8717,108.5579-108.8717h154.2971h284.98c59.9548,0,108.5579,48.7435,108.5579,108.8717v440.547        C2935.4248,841.2259,2886.8218,889.9694,2826.8669,889.9694z"/></defs><use fill="#ffd6e8" overflow="visible" xlink:href="#g"/><clipPath id="h"><use overflow="visible" xlink:href="#g"/></clipPath><path fill="#ffd6e8" d="M2913.9744,213.9789c84.4814,691.043-475.2075,668.8811-667.9307,675.9905       c-192.7231,7.1095,638.8904,195.0944,638.8904,195.0944l97.6814-52.9535l15.8403-800.4313" clip-path="url(#h)"/><g clip-path="url(#h)"><use width="-32766" height="-32766" x="16383" y="16383" overflow="visible" transform="matrix(4.6882 0 0 -4.7018 1989.575 174.22)" xlink:href="#i"/></g><use fill="none" stroke="#3d3d3c" stroke-linecap="round" stroke-linejoin="round" stroke-miterlimit="10" stroke-width="8" overflow="visible" xlink:href="#g"/></g><g><path fill="#fff" stroke="#3d3d3c" stroke-linecap="round" stroke-linejoin="round" stroke-miterlimit="10" stroke-width="8" d="M2563.5588,643.207l-100.5276-93.7451c-10.5527-9.8409-11.1519-26.3984-1.3379-36.9805l0.0037-0.004       c9.812-10.5801,26.3179-11.1809,36.8689-1.3419l75.0847,70.0182c3.4426,3.2103,8.832,3.0001,12.0154-0.4686l128.8071-140.3437       c9.7576-10.6317,26.2617-11.3177,36.8633-1.5323v0c10.6023,9.7862,11.2861,26.3394,1.5276,36.9718l-152.3442,165.9847       C2590.7266,652.4357,2574.1484,653.0822,2563.5588,643.207z"/></g></g><path fill="none" stroke="#3d3d3c" stroke-linecap="round" stroke-linejoin="round" stroke-miterlimit="10" stroke-width="8" d="M2757.1338,631.6155c-5.3464,6.1196-10.6929,12.2391-16.0393,18.3588"/></g><g><g><g><g><g><defs><path id="j" d="M3281.4675,1543.4662c199.1699-13.3224,34.2524-420.7648,159.9038-455.1824          s157.9199,413.701,11.6287,583.8768c-153.9724,179.1112-236.1558,183.4708-236.1558,183.4708L3281.4675,1543.4662z"/></defs><use fill="#ffd6e8" overflow="visible" xlink:href="#j"/><use fill="none" stroke="#3d3d3c" stroke-linecap="round" stroke-linejoin="round" stroke-miterlimit="10" stroke-width="8" overflow="visible" xlink:href="#j"/></g><g><defs><path id="k" d="M3033.7922,1985.9014c-199.1699-13.3225-34.2524-420.7649-159.9038-455.1825          c-125.6516-34.4176-112.5435,421.5526-16.5024,566.8812c132.4177,200.373,231.157,122.1917,231.157,122.1917          L3033.7922,1985.9014z"/></defs><use fill="#ffd6e8" overflow="visible" xlink:href="#k"/><clipPath id="l"><use overflow="visible" xlink:href="#k"/></clipPath><path fill="#ffd6e8" stroke="#3d3d3c" stroke-linecap="round" stroke-linejoin="round" stroke-miterlimit="10" stroke-width="8" d="M2926.6868,1654.1892" clip-path="url(#l)"/><path fill="#ffd6e8" d="M2792.8379,1584.8368c9.4614,660.4301,223.2932,626.2699,240.3242,535.1761         c17.0308-91.0939-3.7847,256.2012-3.7847,256.2012s-114.5735-106.2761-134.8718-117.6628         s-213.3145-224.3564-213.3145-224.3564" clip-path="url(#l)"/><use fill="none" stroke="#3d3d3c" stroke-linecap="round" stroke-linejoin="round" stroke-miterlimit="10" stroke-width="8" overflow="visible" xlink:href="#k"/></g><g><defs><path id="m" d="M3339.6753,2524.1965l-33.1438-1559.5361c-2.0981-98.7366-59.4214-177.2424-129.4182-177.2424          c-69.9963,0-127.3203,78.5059-129.4185,177.2424l-33.1431,1559.5361l-3.5444,166.7529          c50.6162,5.2756,106.8296,8.2393,166.106,8.2393c59.2769,0,115.4895-2.9636,166.1062-8.2393L3339.6753,2524.1965z"/></defs><use fill="#ffd6e8" overflow="visible" xlink:href="#m"/><clipPath id="n"><use overflow="visible" xlink:href="#m"/></clipPath><path fill="#ffd6e8" d="M3066.6746,730.8325c-90.282,2026.8369,205.0908,1784.3032,318.5442,1509.8813         c113.4531-274.4218,17.457,637.6904,17.457,637.6904l-529.0688,89.9194l-249.1853-1086.4822l67.793-450.9938" clip-path="url(#n)"/><use fill="none" stroke="#3d3d3c" stroke-linecap="round" stroke-linejoin="round" stroke-miterlimit="10" stroke-width="8" overflow="visible" xlink:href="#m"/></g></g><g><defs><path id="o" d="M3150.3374,2730.8184c41.3774,10.7307,86.7351,16.6804,134.3325,16.6804         c64.8081,0,125.4629-11.0264,177.5396-30.1716c-9.4006-98.7346-75.3774-175.2815-155.5168-175.2815         C3222.9468,2542.0457,3154.7346,2625.6577,3150.3374,2730.8184z"/></defs><use fill="#fff" overflow="visible" xlink:href="#o"/><clipPath id="p"><use overflow="visible" xlink:href="#o"/></clipPath><path fill="#ffd6e8" stroke="#3d3d3c" stroke-linecap="round" stroke-linejoin="round" stroke-miterlimit="10" stroke-width="8" d="M3197.7935,2515.7017c255.4629,34.1602,185.5403,313.1348,185.5403,313.1348l143.7229-81.3376        l29.1377-228.9504l-162.2471-42.7004" clip-path="url(#p)"/><use fill="none" stroke="#3d3d3c" stroke-linecap="round" stroke-linejoin="round" stroke-miterlimit="10" stroke-width="8" overflow="visible" xlink:href="#o"/></g></g><path fill="#190000" d="M3133.0227,1087.3945v-0.0001c1.7324-12.1636,15.4399-12.1636,17.1724,0v0.0001      c0.9705,6.8131-3.144,13.0819-8.5862,13.0819l0,0C3136.1667,1100.4764,3132.0522,1094.2076,3133.0227,1087.3945z"/><path fill="#190000" d="M3133.0227,1428.8682v-0.0001c1.7324-12.1635,15.4399-12.1635,17.1724,0v0.0001      c0.9705,6.8131-3.144,13.0819-8.5862,13.0819l0,0C3136.1667,1441.9501,3132.0522,1435.6813,3133.0227,1428.8682z"/><path fill="#190000" d="M3231.2468,1515.7891L3231.2468,1515.7891c1.7324-12.1636,15.4399-12.1636,17.1724,0l0,0      c0.9702,6.8132-3.144,13.0819-8.5862,13.0819l0,0C3234.3909,1528.871,3230.2764,1522.6023,3231.2468,1515.7891z"/><path fill="#190000" d="M3485.1665,1494.6207v-0.0001c1.7324-12.1636,15.4397-12.1636,17.1721,0v0.0001      c0.9705,6.8131-3.144,13.0819-8.5859,13.0819h-0.0002C3488.3105,1507.7026,3484.196,1501.4338,3485.1665,1494.6207z"/><path fill="#190000" d="M3049.3599,1760.3853v-0.0001c1.7324-12.1636,15.4399-12.1636,17.1721,0l0.0002,0.0001      c0.9702,6.8131-3.1443,13.0819-8.5862,13.0819l0,0C3052.5039,1773.4672,3048.3894,1767.1984,3049.3599,1760.3853z"/><path fill="#190000" d="M3218.9756,1770.7578L3218.9756,1770.7578c1.7324-12.1636,15.4399-12.1636,17.1724,0l0,0      c0.9705,6.8132-3.144,13.0819-8.5862,13.0819l0,0C3222.1196,1783.8397,3218.0054,1777.571,3218.9756,1770.7578z"/><path fill="#190000" d="M3133.0227,2227.6321L3133.0227,2227.6321c1.7324-12.1636,15.4399-12.1636,17.1724,0l0,0      c0.9705,6.8132-3.144,13.0818-8.5862,13.0818l0,0C3136.1667,2240.7139,3132.0522,2234.4453,3133.0227,2227.6321z"/><path fill="#190000" d="M3275.134,2409.1606v-0.0002c1.7324-12.1636,15.4399-12.1636,17.1724,0v0.0002      c0.9705,6.813-3.144,13.0818-8.5862,13.0818l0,0C3278.2781,2422.2424,3274.1638,2415.9736,3275.134,2409.1606z"/><path fill="#190000" d="M3231.2468,2059.5842L3231.2468,2059.5842c1.7324-12.1636,15.4399-12.1636,17.1724,0l0,0      c0.9702,6.8132-3.144,13.082-8.5862,13.082l0,0C3234.3909,2072.6663,3230.2764,2066.3975,3231.2468,2059.5842z"/><path fill="#190000" d="M3385.3611,1663.312v-0.0001c1.7324-12.1636,15.4399-12.1636,17.1724,0v0.0001      c0.9702,6.8131-3.144,13.0819-8.5862,13.0819l0,0C3388.5051,1676.3939,3384.3906,1670.1251,3385.3611,1663.312z"/><path fill="#190000" d="M2823.814,1699.9956l0.0002-0.0001c1.7322-12.1636,15.4397-12.1636,17.1721,0v0.0001      c0.9705,6.8131-3.144,13.0819-8.5862,13.0819l0,0C2826.9583,1713.0775,2822.8438,1706.8087,2823.814,1699.9956z"/><path fill="#190000" d="M2894.6479,2032.2152l0.0002-0.0001c1.7322-12.1636,15.4397-12.1636,17.1721,0v0.0001      c0.9705,6.8131-3.144,13.0819-8.5862,13.0819l0,0C2897.7922,2045.2971,2893.6777,2039.0283,2894.6479,2032.2152z"/><path fill="#190000" d="M2873.7493,1854.5588v-0.0001c1.7324-12.1636,15.4399-12.1636,17.1724,0v0.0001      c0.9705,6.8131-3.144,13.0819-8.5862,13.0819l0,0C2876.8933,1867.6407,2872.7791,1861.3719,2873.7493,1854.5588z"/><path fill="#190000" d="M3449.3801,1317.3407v-0.0001c1.7324-12.1635,15.4399-12.1635,17.1724,0v0.0001      c0.9702,6.8131-3.144,13.0819-8.5862,13.0819l0,0C3452.5242,1330.4226,3448.4097,1324.1538,3449.3801,1317.3407z"/><path fill="#190000" d="M3049.3599,2559.1492v-0.0002c1.7324-12.1633,15.4399-12.1633,17.1721,0l0.0002,0.0002      c0.9702,6.813-3.1443,13.0818-8.5862,13.0818l0,0C3052.5039,2572.231,3048.3894,2565.9622,3049.3599,2559.1492z"/></g><path fill="none" stroke="#3d3d3c" stroke-linecap="round" stroke-linejoin="round" stroke-miterlimit="10" stroke-width="8" d="M3130.9785,2042.3402c1.7217,7.2828,5.675,14.0187,11.1885,19.0631"/><path fill="none" stroke="#3d3d3c" stroke-linecap="round" stroke-linejoin="round" stroke-miterlimit="10" stroke-width="8" d="M3191.5605,949.1917c8.1919,23.2344,13.228,47.5854,14.9263,72.1705"/><path fill="none" stroke="#3d3d3c" stroke-linecap="round" stroke-linejoin="round" stroke-miterlimit="10" stroke-width="8" d="M3285.9587,2628.9026c7.0913,4.6409,12.1089,12.3503,13.491,20.7285"/></g><g><g><g><g><g><g><defs><path id="q" d="M2234.7512,1770.4224H701.3568c-30.6124,0-55.4286-24.8162-55.4286-55.4286V723.7045           c0-30.6124,24.8162-55.4286,55.4286-55.4286h1533.3944c30.6123,0,55.4285,24.8162,55.4285,55.4286v991.2892           C2290.1797,1745.6062,2265.3635,1770.4224,2234.7512,1770.4224z"/></defs><use fill="#ecedee" overflow="visible" xlink:href="#q"/><clipPath id="r"><use overflow="visible" xlink:href="#q"/></clipPath><g clip-path="url(#r)"><defs><rect id="s" width="1829.827" height="212.872" x="566.979" y="624.144"/></defs><use fill="#fff" overflow="visible" xlink:href="#s"/><clipPath id="t"><use overflow="visible" xlink:href="#s"/></clipPath><path fill="#383351" d="M574.2188,908.0139c1735.5994,15.576,1918.0896-100.3165,1828.7859-312.218           c-89.304-211.9015,124.2485,212.111,124.2485,212.111l-38.8276,201.351l-508.6432,15.576l-1127.3531-23.364" clip-path="url(#t)"/><use fill="none" stroke="#3d3d3c" stroke-linecap="round" stroke-linejoin="round" stroke-miterlimit="10" stroke-width="8" overflow="visible" xlink:href="#s"/></g><use fill="none" stroke="#3d3d3c" stroke-linecap="round" stroke-linejoin="round" stroke-miterlimit="10" stroke-width="8" overflow="visible" xlink:href="#q"/></g><g><ellipse cx="744.106" cy="747.129" fill="#ecedee" stroke="#3d3d3c" stroke-linecap="round" stroke-linejoin="round" stroke-miterlimit="10" stroke-width="8" rx="30.091" ry="30.178"/><ellipse cx="835.154" cy="747.129" fill="#ecedee" stroke="#3d3d3c" stroke-linecap="round" stroke-linejoin="round" stroke-miterlimit="10" stroke-width="8" rx="30.091" ry="30.178"/><ellipse cx="926.203" cy="747.129" fill="#ecedee" stroke="#3d3d3c" stroke-linecap="round" stroke-linejoin="round" stroke-miterlimit="10" stroke-width="8" rx="30.091" ry="30.178"/></g></g></g><g><path fill="#cfcfd0" d="M1132.5,986.2327h236.6465c10.7052,0,19.3849-8.7048,19.3849-19.441        c0-10.7361-8.6797-19.4409-19.3849-19.4409H1132.5c-10.7052,0-19.3849,8.7048-19.3849,19.4409        C1113.1151,977.528,1121.7948,986.2327,1132.5,986.2327z"/><path fill="#cfcfd0" d="M764.1442,986.2327h71.851h92.6131h131.842c10.7052,0,19.3849-8.7048,19.3849-19.441        c0-10.7361-8.6797-19.4409-19.3849-19.4409h-131.842h-92.6131h-71.851c-10.7053,0-19.3849,8.7048-19.3849,19.4409        C744.7592,977.528,753.4389,986.2327,764.1442,986.2327z"/><path fill="#cfcfd0" d="M764.1442,1277.847h296.3062c10.7052,0,19.3849-8.7048,19.3849-19.441s-8.6797-19.4409-19.3849-19.4409        H764.1442c-10.7053,0-19.3849,8.7047-19.3849,19.4409S753.4389,1277.847,764.1442,1277.847z"/><path fill="#cfcfd0" d="M1925.7717,1093.158h-278.005c-10.7053,0-19.3849,8.7047-19.3849,19.4409s8.6796,19.441,19.3849,19.441        h278.005c10.7052,0,19.3849-8.7048,19.3849-19.441S1936.4769,1093.158,1925.7717,1093.158z"/><path fill="#cfcfd0" d="M1540.4209,1093.158H764.1442c-10.7053,0-19.3849,8.7047-19.3849,19.4409s8.6797,19.441,19.3849,19.441        h776.2767c10.7052,0,19.3849-8.7048,19.3849-19.441S1551.1261,1093.158,1540.4209,1093.158z"/><path fill="#cfcfd0" d="M1388.5314,1394.4927c0-10.7362-8.6797-19.4409-19.3849-19.4409h-80.3887        c-10.7053,0-19.385,8.7047-19.385,19.4409s8.6797,19.441,19.385,19.441h80.3887        C1379.8517,1413.9337,1388.5314,1405.2289,1388.5314,1394.4927z"/><path fill="#cfcfd0" d="M764.1442,1413.9337h71.851h92.6131h252.354c10.7053,0,19.385-8.7048,19.385-19.441        s-8.6797-19.4409-19.385-19.4409h-252.354h-92.6131h-71.851c-10.7053,0-19.3849,8.7047-19.3849,19.4409        S753.4389,1413.9337,764.1442,1413.9337z"/><path fill="#cfcfd0" d="M1060.4503,1666.666H764.1442c-10.7053,0-19.3849,8.7048-19.3849,19.4409        c0,10.7362,8.6797,19.441,19.3849,19.441h296.3062c10.7052,0,19.3849-8.7048,19.3849-19.441        C1079.8352,1675.3708,1071.1555,1666.666,1060.4503,1666.666z"/><path fill="#cfcfd0" d="M1473.6575,1520.8589h-157.0433c-10.7053,0-19.3849,8.7048-19.3849,19.4409        c0,10.7362,8.6796,19.441,19.3849,19.441h157.0433c10.7052,0,19.3849-8.7048,19.3849-19.441        C1493.0424,1529.5637,1484.3627,1520.8589,1473.6575,1520.8589z"/><path fill="#cfcfd0" d="M1209.5427,1520.8589H771.0349c-10.7052,0-19.3849,8.7048-19.3849,19.4409        c0,10.7362,8.6797,19.441,19.3849,19.441h438.5079c10.7053,0,19.385-8.7048,19.385-19.441        C1228.9277,1529.5637,1220.248,1520.8589,1209.5427,1520.8589z"/></g></g><line x1="2234.831" x2="701.277" y1="1770.422" y2="1770.422" fill="#ecedee" stroke="#3d3d3c" stroke-linecap="round" stroke-linejoin="round" stroke-miterlimit="10" stroke-width="8"/></g><path fill="none" stroke="#3d3d3c" stroke-linecap="round" stroke-linejoin="round" stroke-miterlimit="10" stroke-width="8" d="M1674.6958,1469.9413c16.5087-10.7395,33.0173-21.4789,49.5259-32.2184"/></g><g><g><g><defs><path id="u" d="M1499.6588,1060.8597H510.878c-33.5242,0-60.701,27.2554-60.701,60.8777v378.2412        c0,33.6217,27.1768,60.8771,60.701,60.8771h834.5264l84.7838,85.0294c6.4498,6.468,17.4779,1.8867,17.4779-7.2603v-77.7692        h51.9927c33.5242,0,60.702-27.2554,60.702-60.8771v-378.2412C1560.3608,1088.1151,1533.183,1060.8597,1499.6588,1060.8597z"/></defs><use fill="#ffd6e8" overflow="visible" xlink:href="#u"/><clipPath id="v"><use overflow="visible" xlink:href="#u"/></clipPath><path fill="#ffd6e8" d="M514.7018,977.9935c26.5275,802.56,831.2614,496.6118,1045.6589,594.1605       s-767.1202,336.9865-767.1202,336.9865L218.478,1273.3953L342.273,911.483" clip-path="url(#v)"/><g clip-path="url(#v)"><use width="-32766" height="-32766" x="16383" y="16383" overflow="visible" transform="matrix(7.8514 0 0 -7.8741 2055.839 632.741)" xlink:href="#i"/></g><use fill="none" stroke="#3d3d3c" stroke-linecap="round" stroke-linejoin="round" stroke-miterlimit="10" stroke-width="8" overflow="visible" xlink:href="#u"/></g><g><path fill="#fff" stroke="#3d3d3c" stroke-linecap="round" stroke-linejoin="round" stroke-miterlimit="10" stroke-width="8" d="M1425.8425,1230.1045H584.6954c-10.897,0-19.7308-8.8337-19.7308-19.7307v-0.0571       c0-10.897,8.8337-19.7307,19.7308-19.7307h841.1472c10.8971,0,19.7308,8.8337,19.7308,19.7307v0.0571       C1445.5734,1221.2708,1436.7396,1230.1045,1425.8425,1230.1045z"/><path fill="#fff" stroke="#3d3d3c" stroke-linecap="round" stroke-linejoin="round" stroke-miterlimit="10" stroke-width="8" d="M1210.7211,1374.6456H584.6954c-10.897,0-19.7308-8.8339-19.7308-19.7308v-0.057       c0-10.897,8.8337-19.7308,19.7308-19.7308h626.0257c10.897,0,19.7307,8.8339,19.7307,19.7308v0.057       C1230.4518,1365.8118,1221.618,1374.6456,1210.7211,1374.6456z"/></g></g><path fill="none" stroke="#3d3d3c" stroke-linecap="round" stroke-linejoin="round" stroke-miterlimit="10" stroke-width="8" d="M708.9499,1116.5432c-1.965,1.9707-3.93,3.9414-5.895,5.9121"/></g><g><g><g><defs><path id="w" d="M1837.0771,2701.4431l100.943-629.4841c13.8131-86.1388,73.641-157.73,155.7946-186.4266h0.0002        l253.4036,361.1407l73.3535,494.8967L1837.0771,2701.4431L1837.0771,2701.4431z"/></defs><use fill="#ffd6e8" overflow="visible" xlink:href="#w"/><clipPath id="x"><use overflow="visible" xlink:href="#w"/></clipPath><g clip-path="url(#x)"><defs><path id="y" d="M2156.75,2091.2754c-62.9351,771.3254-189.4897,677.0457-189.4897,677.0457l312.1462,45.2358         l78.7349-45.2358l-143.7383-623.5432l-64.3215-111.4634"/></defs><clipPath id="z"><use overflow="visible" xlink:href="#y"/></clipPath><g clip-path="url(#z)"><use width="-32766" height="-32766" x="16383" y="16383" overflow="visible" transform="matrix(21.8654 0 0 -21.9286 2162.7 2423.436)" xlink:href="#A"/></g></g><polyline fill="#ecedee" stroke="#3d3d3c" stroke-linecap="round" stroke-linejoin="round" stroke-miterlimit="10" stroke-width="8" points="1866.237 2313.551 2232.544 2651.269 2158.667 2811.799 1837.077 2576.653" clip-path="url(#x)"/><use fill="none" stroke="#3d3d3c" stroke-linecap="round" stroke-linejoin="round" stroke-miterlimit="10" stroke-width="8" overflow="visible" xlink:href="#w"/></g><g><defs><path id="B" d="M2127.8672,2173.0591l69.3096,585.2302h773.5479l-172.8057-973.0739        c0,0-420.0735-23.2383-713.488,103.8298"/></defs><use fill="#ffd6e8" overflow="visible" xlink:href="#B"/><clipPath id="C"><use overflow="visible" xlink:href="#B"/></clipPath><ellipse cx="2430.278" cy="1810.12" fill="#ecedee" stroke="#3d3d3c" stroke-linecap="round" stroke-linejoin="round" stroke-miterlimit="10" stroke-width="8" clip-path="url(#C)" rx="274.242" ry="195.901" transform="rotate(-46.843 2430.229 1810.057)"/><ellipse cx="2422.856" cy="1808.507" fill="#f5f6f7" stroke="#3d3d3c" stroke-linecap="round" stroke-linejoin="round" stroke-miterlimit="10" stroke-width="8" clip-path="url(#C)" rx="228.433" ry="163.308" transform="rotate(-46.843 2422.844 1808.453)"/><g clip-path="url(#C)"><defs><path id="D" d="M2788.0361,1885.5323c28.9062,741.6422-151.5713,469.3744-298.4622,511.1425         c-159.9058,45.4688-8.9187,152.7817-8.9187,152.7817s490.0693,177.1592,293.6531,218.8645         c-48.8923,10.3813,267.0652,60.6226,280.906-41.7053c13.8408-102.3281-13.7747-329.9409-13.7747-329.9409l-195.6099-511.1425         "/></defs><clipPath id="E"><use overflow="visible" xlink:href="#D"/></clipPath><g clip-path="url(#E)"><use width="-32766" height="-32766" x="16383" y="16383" overflow="visible" transform="matrix(21.8654 0 0 -21.9286 2737.607 2337.663)" xlink:href="#A"/></g></g><g clip-path="url(#C)"><path fill="#ecedee" stroke="#3d3d3c" stroke-linecap="round" stroke-linejoin="round" stroke-miterlimit="10" stroke-width="8" d="M2441.7505,2124.9126c-110.6763,15.5364-193.9219,112.6003-185.9114,216.7712        c8.0107,104.1733,104.2471,176.0425,214.9233,160.5061c110.6787-15.5369,193.9248-112.6011,185.9141-216.7744        C2648.6658,2181.2444,2552.4292,2109.376,2441.7505,2124.9126z M2467.6541,2461.7668        c-86.9668,12.2083-162.5728-44.2542-168.8674-126.1118c-6.2947-81.855,59.1057-158.1113,146.0723-170.3193        c86.9697-12.2085,162.5757,44.2537,168.8701,126.1086C2620.0239,2373.302,2554.6235,2449.5583,2467.6541,2461.7668z"/><path fill="#ecedee" stroke="#3d3d3c" stroke-linecap="round" stroke-linejoin="round" stroke-miterlimit="10" stroke-width="8" d="M2385.9465,2281.2847c11.8613-1.665,20.7793-12.0627,19.9209-23.2249        c-0.8582-11.1619-11.168-18.8633-23.0293-17.1982c-11.8591,1.6648-20.7764,12.0652-19.918,23.2271        C2363.7786,2275.2507,2374.0874,2282.9495,2385.9465,2281.2847z"/><path fill="#ecedee" stroke="#3d3d3c" stroke-linecap="round" stroke-linejoin="round" stroke-miterlimit="10" stroke-width="8" d="M2517.0469,2222.022c-11.8591,1.6646-20.7764,12.0649-19.918,23.2268        c0.8584,11.1621,11.1672,18.8608,23.0264,17.196c11.8613-1.665,20.7793-12.0627,19.9209-23.2249        C2539.2178,2228.0581,2528.908,2220.3567,2517.0469,2222.022z"/><path fill="#ecedee" stroke="#3d3d3c" stroke-linecap="round" stroke-linejoin="round" stroke-miterlimit="10" stroke-width="8" d="M2525.6494,2286.8279c-9.8391,1.3811-17.2432,9.9746-16.6057,19.2268l-0.0034,0.0005l0.0066,0.0842        c2.1111,27.4541-19.801,53.0037-48.9695,57.0981c-28.5667,4.01-53.4475-14.0542-56.4448-40.5916        c0.02-0.5925,0.009-1.1892-0.0371-1.7888c-0.7153-9.3013-9.3052-15.7183-19.1897-14.3308        c-9.8823,1.3875-17.3147,10.0535-16.5994,19.3547l-0.1331,0.0188l0.0063,0.0842c3.5425,46.0669,46.0471,77.8091,94.988,70.939        c48.9131-6.8665,85.6633-49.687,82.1736-95.7212c-0.001-0.0144-0.001-0.0288-0.0022-0.0432        c-0.0002-0.0049-0.001-0.0095-0.0015-0.0144c-0.0007-0.0098-0.001-0.0193-0.0017-0.0288l-0.0066-0.0842l-0.0034,0.0005        C2544.0422,2291.8,2535.4863,2285.447,2525.6494,2286.8279z"/></g><use fill="none" stroke="#3d3d3c" stroke-linecap="round" stroke-linejoin="round" stroke-miterlimit="10" stroke-width="8" overflow="visible" xlink:href="#B"/></g><g><g><defs><polyline id="F" points="2533.227 1804.833 2463.947 1583.9 2292.936 1690.535 2291.994 1710.897 2283.286 1899.189"/></defs><use fill="#f5f6f7" overflow="visible" xlink:href="#F"/><clipPath id="G"><use overflow="visible" xlink:href="#F"/></clipPath><path fill="#cfcfd0" d="M2203.8284,1952.8743c216.2383-160.5803,108.6047-199.4984,183.9863-284.1        c75.3818-84.6014-184.4951-3.7489-184.4951-3.7489l-0.6121,208.7831" clip-path="url(#G)"/><use fill="none" stroke="#3d3d3c" stroke-linecap="round" stroke-linejoin="round" stroke-miterlimit="10" stroke-width="8" overflow="visible" xlink:href="#F"/></g><g><defs><path id="H" d="M2442.9968,1566.2809l-3.228-69.5468l-99.5176-126.235l-197.0234,66.1042         c-26.1067,291.7111,90.2563,410.5992,253.5874,260.1534"/></defs><use fill="#f5f6f7" overflow="visible" xlink:href="#H"/><clipPath id="I"><use overflow="visible" xlink:href="#H"/></clipPath><g clip-path="url(#I)"><g><ellipse cx="2124.319" cy="1657.537" fill="#cfcfd0" opacity=".27" rx="63.497" ry="43.567"/><ellipse cx="2353.549" cy="1610.594" fill="#cfcfd0" opacity=".27" rx="39.317" ry="34.029"/></g><g><path fill="#3d3d3c" d="M2184.3196,1601.7037L2184.3196,1601.7037c-6.4919,0.9801-12.5483-3.4915-13.5227-9.9843          l-2.9963-19.9633c-0.9734-6.4851,3.4915-12.5325,9.9758-13.5114l0,0c6.4919-0.9801,12.5483,3.4915,13.5227,9.9844          l2.9963,19.963C2195.2688,1594.6774,2190.804,1600.7247,2184.3196,1601.7037z"/><path fill="#3d3d3c" d="M2324.2498,1580.5795L2324.2498,1580.5795c-6.4922,0.9801-12.5483-3.4915-13.5229-9.9843          l-2.9963-19.9634c-0.9734-6.4851,3.4917-12.5323,9.9758-13.5112l0,0c6.4922-0.98,12.5483,3.4916,13.5229,9.9845          l2.9963,19.9629C2335.199,1573.5531,2330.7339,1579.6005,2324.2498,1580.5795z"/><path fill="#3d3d3c" d="M2170.6873,1530.9169c-22.9221,10.6323-16.3193,22.0095-1.5581,16.3003          C2183.8906,1541.5081,2185.6636,1523.9705,2170.6873,1530.9169z"/><path fill="#3d3d3c" d="M2312.7002,1508.5336c25.0273,3.3936,22.0569,16.2161,6.2737,15.1179          C2303.1909,1522.5533,2296.3486,1506.3164,2312.7002,1508.5336z"/><path fill="#cfcfd0" d="M2249.0696,1572.4723c1.3889,9.2543-7.7332,6.8794-18.3064,8.4756s-18.594,6.559-19.9829-2.6953          c-1.3892-9.2543,6.0562-18.0503,16.6294-19.6465C2237.9832,1557.0099,2247.6804,1563.218,2249.0696,1572.4723z"/><g><defs><path id="J" d="M2194.5803,1649.9674c43.2715,95.7184,127.3088,30.5186,113.7131-32.2407            c-0.7012-3.2371-3.4668-5.6176-6.7417-6.0494c-13.9185-1.8354-53.3921-3.193-103.8474,28.1561            C2194.3132,1641.9403,2192.9331,1646.3237,2194.5803,1649.9674z"/></defs><use fill="#cfcfd0" overflow="visible" xlink:href="#J"/><clipPath id="K"><use overflow="visible" xlink:href="#J"/></clipPath><ellipse cx="2279.715" cy="1687.636" fill="#3d3d3c" clip-path="url(#K)" opacity=".29" rx="52.581" ry="46.984" transform="rotate(-33.664 2279.571 1687.658)"/><path fill="#ecedee" d="M2208.1658,1629.468c1.7917,6.5945,4.8435,15.387,6.9993,16.5535           c13.2815,7.1864,63.3674-11.1378,68.8347-18.7747c1.5217-2.1257-3.9346-23.4735-3.9346-23.4735l-65.0601,20.0007" clip-path="url(#K)"/></g></g></g><use fill="none" stroke="#3d3d3c" stroke-linecap="round" stroke-linejoin="round" stroke-miterlimit="10" stroke-width="8" overflow="visible" xlink:href="#H"/></g><path fill="#4f4f5b" stroke="#3d3d3c" stroke-linecap="round" stroke-linejoin="round" stroke-miterlimit="10" stroke-width="8" d="M2417.8391,1581.4603c-120.7192-72.8868-85.8672-146.0675-85.8672-146.0675       c-444.014,302.7805-408.884-218.1146-79.3262-145.0173c0,0,211.9238-167.4926,207.1936,68.2976       C2635.0254,1363.6888,2445.1125,1680.2423,2417.8391,1581.4603z"/><path fill="#f5f6f7" stroke="#3d3d3c" stroke-linecap="round" stroke-linejoin="round" stroke-miterlimit="10" stroke-width="8" d="M2368.1455,1551.4607c114.2627-110.209,218.2585,43.6039,56.0166,94.7063"/></g><g><path fill="#ecedee" stroke="#3d3d3c" stroke-linecap="round" stroke-linejoin="round" stroke-miterlimit="10" stroke-width="8" d="M2214.4031,2768.321h-888.7638l-214.6405-531.8679c-9.1245-22.6101,4.2156-40.9392,29.7959-40.9392       h796.1293c25.5803,0,53.7141,18.3291,62.8386,40.9392L2214.4031,2768.321z"/><path fill="#ecedee" stroke="#3d3d3c" stroke-linecap="round" stroke-linejoin="round" stroke-miterlimit="10" stroke-width="8" d="M2568.7292,2726.6157H1298.0557l21.4651,41.7053h1316.9441l-4.9602-9.6377       C2622.3894,2740.9729,2594.2839,2726.6157,2568.7292,2726.6157z"/><path fill="#ecedee" stroke="#3d3d3c" stroke-linecap="round" stroke-linejoin="round" stroke-miterlimit="10" stroke-width="8" d="M2194.3975,2768.321h-888.7637l-214.6405-531.8679c-9.1245-22.6101,4.2156-40.9392,29.7959-40.9392       h796.1292c25.5803,0,53.7142,18.3291,62.8386,40.9392L2194.3975,2768.321z"/><ellipse cx="1611.96" cy="2463.506" fill="#ecedee" stroke="#3d3d3c" stroke-linecap="round" stroke-linejoin="round" stroke-miterlimit="10" stroke-width="8" rx="60.681" ry="90.201" transform="rotate(-59.375 1612.064 2463.6)"/></g><g><defs><path id="L" d="M2790.7805,1981.2915l145.3076,581.9595h318.8042l-247.1768-652.0765        c-27.5537-75.642-99.2976-125.959-179.5969-125.959l-86.8821-2.3485"/></defs><use fill="#ffd6e8" overflow="visible" xlink:href="#L"/><clipPath id="M"><use overflow="visible" xlink:href="#L"/></clipPath><path fill="#ecedee" stroke="#3d3d3c" stroke-linecap="round" stroke-linejoin="round" stroke-miterlimit="10" stroke-width="8" d="M2855.8809,2425.9102c166.2234,1.5435,375.2451,35.5017,420.0273,87.9824       c44.7822,52.481,0,94.157,0,94.157L2840.49,2563.251" clip-path="url(#M)"/><use fill="none" stroke="#3d3d3c" stroke-linecap="round" stroke-linejoin="round" stroke-miterlimit="10" stroke-width="8" overflow="visible" xlink:href="#L"/></g><g><defs><path id="N" d="M2189.269,2530.781c0,0,11.3008,58.304,147.6106-52.6963c0,0-41.304,98.1436,23.113,104.6165        c0,0,38.3882,20.3176,59.7542,13.7153c0,0,52.9397,23.7661,76.3235,21.8931c0,0,18.6641-29.0295-30.3179-42.9851        l14.9028-25.8679c0,0,135.4087,3.981,155.678,2.342l467.8218,195.2422c66.2581,27.6523,142.0181-6.6868,165.1033-74.8352        v-0.0002c24.1235-71.2131-19.7556-147.4194-93.3188-162.0383c-184.1858-36.6023-493.9895-94.8523-560.2849-93.5024        c-72.5286,1.4768-216.7351-26.9465-262.3911-18.3757C2315.0684,2405.459,2189.269,2530.781,2189.269,2530.781z"/></defs><use fill="#f5f6f7" overflow="visible" xlink:href="#N"/><clipPath id="O"><use overflow="visible" xlink:href="#N"/></clipPath><path fill="#cfcfd0" d="M2998.0645,2427.1475c344.6201,160.5298,184.5532,331.1418,184.5532,331.1418l211.3704-31.6736       l-32.8342-244.6982" clip-path="url(#O)"/><use fill="none" stroke="#3d3d3c" stroke-linecap="round" stroke-linejoin="round" stroke-miterlimit="10" stroke-width="8" overflow="visible" xlink:href="#N"/></g></g><g><ellipse cx="1611.26" cy="2475.738" fill="#ffd6e8" stroke="#3d3d3c" stroke-linecap="round" stroke-linejoin="round" stroke-miterlimit="10" stroke-width="8" rx="93.184" ry="119.475" transform="rotate(-49.701 1611.322 2475.732)"/><polygon fill="#ffd6e8" stroke="#3d3d3c" stroke-linecap="round" stroke-linejoin="round" stroke-miterlimit="10" stroke-width="8" points="1252.87 2410.702 1409.453 2472.206 1436.601 2332.423 1280.017 2270.919"/><polygon fill="#ecedee" stroke="#3d3d3c" stroke-linecap="round" stroke-linejoin="round" stroke-miterlimit="10" stroke-width="8" points="1418.607 2598.335 1467.332 2560.842 1415.066 2503.316 1366.342 2540.809"/></g><path fill="none" stroke="#3d3d3c" stroke-linecap="round" stroke-linejoin="round" stroke-miterlimit="10" stroke-width="8" d="M2121.4009,1373.215c2.3052,9.7115,10.0376,17.4879,19.0137,21.8031     c8.9761,4.3151,19.1089,5.5728,29.0591,5.859"/><path fill="none" stroke="#3d3d3c" stroke-linecap="round" stroke-linejoin="round" stroke-miterlimit="10" stroke-width="8" d="M2434.1064,1563.0918c4.4722,9.5038,2.6211,21.6428-4.479,29.3717"/><path fill="none" stroke="#3d3d3c" stroke-linecap="round" stroke-linejoin="round" stroke-miterlimit="10" stroke-width="8" d="M2435.7778,1363.0717c10.1389-4.7435,21.7507-6.2589,32.7625-4.2755"/><path fill="none" stroke="#3d3d3c" stroke-linecap="round" stroke-linejoin="round" stroke-miterlimit="10" stroke-width="8" d="M2995.9395,2225.248c4.1042,2.0581,8.2085,4.1162,12.3127,6.1743"/><path fill="none" stroke="#3d3d3c" stroke-linecap="round" stroke-linejoin="round" stroke-miterlimit="10" stroke-width="8" d="M2635.6028,2519.6172c3.2891,9.5095,4.0659,19.8801,2.2302,29.7756"/><path fill="none" stroke="#3d3d3c" stroke-linecap="round" stroke-linejoin="round" stroke-miterlimit="10" stroke-width="8" d="M1862.9353,2589.7888c14.381,12.3296,28.762,24.6594,43.1428,36.989"/></g></g></g><script xmlns="" id="vsc-settings-data">{"audioBoolean":true,"blacklist":"www.instagram.com\nx.com\nimgur.com\nteams.microsoft.com\nmeet.google.com","controllerButtonSize":14,"controllerOpacity":0.3,"defaultLogLevel":4,"displayKeyCode":86,"enabled":true,"forceLastSavedSpeed":false,"keyBindings":[{"action":"slower","force":false,"key":83,"predefined":true,"value":0.1},{"action":"faster","force":false,"key":68,"predefined":true,"value":0.1},{"action":"rewind","force":false,"key":90,"predefined":true,"value":10},{"action":"advance","force":false,"key":88,"predefined":true,"value":10},{"action":"reset","force":false,"key":82,"predefined":true,"value":1},{"action":"fast","force":false,"key":71,"predefined":true,"value":1.8},{"action":"display","force":false,"key":86,"predefined":true,"value":0},{"action":"mark","force":false,"key":77,"predefined":true,"value":0},{"action":"jump","force":false,"key":74,"predefined":true,"value":0}],"lastSpeed":1,"logLevel":3,"rememberSpeed":false,"speeds":{"blob:https://megacloud.blog/ce96e460-55e7-4935-981f-047158843def":1},"startHidden":false,"version":"0.5.3"}</script><script xmlns=""/></svg>
